<?xml version="1.0" encoding="UTF-8"?>
<svg id="Layer_2" data-name="Layer 2" xmlns="http://www.w3.org/2000/svg" viewBox="0 0 2548.46 472.7">
  <defs>
    <style>
      .cls-1 {
        fill: #00a1e4;
      }
    </style>
  </defs>
  <g id="Layer_1-2" data-name="Layer 1">
    <g>
      <path class="cls-1" d="M498.27,472.7c-1.87,0-3.85-.52-5.76-1.59-4.62-2.58-6.79-7.15-5.42-11.38l64.46-198.15-191.28.16c-9.45,0-17.74-3.48-22.75-9.56-4.14-5.02-5.63-11.26-4.3-18.05l15.75-80.92c2.3-11.82,12.71-20.4,24.76-20.4h108.33l32.86-118.21c2.71-9.3,9.51-14.59,18.68-14.59h78.74c6.27,0,12.02,2.88,15.77,7.9s4.89,11.35,3.11,17.36l-29.81,101c-2.87,9.73-11.97,16.53-22.11,16.53h-205.57c-7.27,0-13.55,5.18-14.94,12.31l-15.75,80.92c-.74,3.81,0,7.1,2.21,9.78,3.05,3.71,8.67,5.92,15.03,5.92l205.06-.17-68.47,210.45c.26.23.64.45.98.57l161.17-193.6c1.36-1.6,1.75-4.06.93-5.76-.22-.46-.9-1.86-3.76-1.77h-.17s-37.33,0-37.33,0v-10h37.25c5.85-.16,10.69,2.6,13.02,7.41,2.56,5.29,1.64,11.94-2.28,16.55l-161.75,194.3c-1.67,1.97-4.05,2.97-6.64,2.97ZM492.44,132.8h86.87c5.75,0,10.9-3.85,12.52-9.36l29.81-101c.87-2.96.31-6.07-1.53-8.55s-4.68-3.89-7.76-3.89h-78.74c-4.66,0-7.63,2.4-9.07,7.33l-32.1,115.47Z"/>
      <path class="cls-1" d="M378.82,217.82c-3.35,0-5.24-1.85-5.24-4.82,0-.56.06-1.17.18-1.79l7.67-36.66h10.96l-6.64,31.71c-.06.43-.12.87-.12,1.17,0,1.3.67,1.73,2.37,1.73h21.92l-1.83,8.65h-29.29Z"/>
      <path class="cls-1" d="M421,217.82c-7.74,0-11.07-3.21-11.07-10.01,0-2.23.42-5.38,1.09-8.35,2.9-13.04,6.71-14.77,19.18-14.77,9.01,0,14.76,2.16,14.76,9.89,0,1.3-.24,2.84-.6,4.51-.79,3.71-2.48,5.56-6.41,5.56h-18.09c-.18.87-.24,1.67-.24,2.35,0,2.53,1.33,3.89,5.38,3.89h15.61l-1.45,6.92h-18.15ZM432.97,197.97c1.69,0,2-1.17,2.18-1.98.06-.31.12-.62.12-.86,0-2.66-3.21-3.52-5.93-3.52-4.9,0-7.08,1.55-8.11,6.37h11.73Z"/>
      <path class="cls-1" d="M474.47,186.49l-4.23-3.34,8.38-10.16,4.64,3.66-8.78,9.85Z"/>
      <path class="cls-1" d="M485.1,192.16h18.46l1.56-7.11h-21.45c-7.09,0-10.08,1.79-11.44,7.85-.2.93-.33,1.98-.33,2.72,0,3.9,2.6,6.06,7.61,7.79l5.92,2.04c2.41.8,5.4,1.79,5.4,3.71,0,1.55-1.43,1.55-2.86,1.55h-24.34c-4.49,0-6.57-1.42-6.57-4.7,0-.74.13-1.67.33-2.6l2.54-11.25h9.75l1.56-7.11h-9.75l2.34-10.51h-10.14l-2.34,10.51h-4.81l-1.56,7.11h4.81l-3.31,14.77c-.2.93-.33,1.98-.33,2.78,0,5.56,4.75,8.1,10.66,8.1h33.5c6.83,0,9.43-2.04,10.66-7.6.19-.93.33-2.04.33-2.78,0-4.88-4.1-6.68-8.84-8.28l-6.89-2.35c-1.88-.62-3.64-1.24-3.64-2.78,0-1.79,1.82-1.85,3.19-1.85Z"/>
      <path class="cls-1" d="M530.47,217.6c-12.09,0-16.84-5.78-16.84-14.89,0-2.4.26-5.04.91-7.87,2.99-13.53,8.39-20.3,24.31-20.3h18.79l-2.12,9.38h-12.7c-10.4,0-13.46,1.04-15.8,11.5-.52,2.4-.76,5.01-.67,6.61.29,4.88,2.56,6.97,10.56,6.97h13.65l-1.95,8.61h-18.14Z"/>
      <path class="cls-1" d="M587.95,196.94c0,1.76-.06,3.16-.49,5.41-2.5,13.19-8.28,15.25-20.76,15.25-10.29,0-15.52-3.1-15.52-12.15,0-1.76.12-3.22.55-5.53,2.43-13.13,8.28-15.25,20.76-15.25,10.35,0,15.46,3.16,15.46,12.28ZM560.92,205.21c0,3.65,1.89,5.41,6.7,5.41,6.39,0,8.7-2.49,10.1-8.87.3-1.52.49-3.52.49-4.68,0-3.65-1.7-5.41-6.57-5.41-6.39,0-8.83,2.49-10.17,8.87-.37,1.58-.55,3.52-.55,4.68Z"/>
      <path class="cls-1" d="M625.58,190.88c.88-4.35,2.71-6.21,7.12-6.21h12.13c6.36,0,10.71,3.04,10.71,8.95,0,.87-.12,1.99-.29,2.92l-4.24,21.07h-9.18l3.77-18.58c.18-.93.29-2.05.29-2.73,0-3.04-1.59-4.47-5.3-4.47h-3.94c-1.47,0-2.24.62-2.53,2.17l-4.77,23.61h-9.18l5.42-26.72Z"/>
      <path class="cls-1" d="M591.69,190.88c.88-4.35,2.71-6.21,7.12-6.21h12.13c6.36,0,10.71,3.04,10.71,8.95,0,.87-.12,1.99-.29,2.92l-4.24,21.07h-9.18l3.77-18.58c.18-.93.29-2.05.29-2.73,0-3.04-1.59-4.47-5.3-4.47h-3.94c-1.47,0-2.24.62-2.53,2.17l-4.77,23.61h-9.18l5.42-26.72Z"/>
      <path class="cls-1" d="M666.93,217.6c-7.96,0-11.38-3.2-11.38-9.95,0-2.21.44-5.35,1.12-8.3,2.98-12.97,6.9-14.69,19.71-14.69,9.27,0,15.17,2.15,15.17,9.83,0,1.29-.25,2.83-.62,4.49-.81,3.69-2.55,5.53-6.59,5.53h-18.59c-.19.86-.25,1.66-.25,2.34,0,2.52,1.37,3.87,5.53,3.87h16.04l-1.49,6.88h-18.66ZM679.24,197.88c1.74,0,2.05-1.17,2.24-1.97.06-.31.12-.61.12-.86,0-2.64-3.3-3.5-6.09-3.5-5.04,0-7.28,1.54-8.33,6.33h12.06Z"/>
      <path class="cls-1" d="M735.46,192.19h9.75l1.56-7.04h-9.75l2.34-10.41h-10.14l-2.46,9.89-4.59.04h-13.46c-12.35,0-16.06,5.47-18.07,15.23-.39,1.86-.65,4.16-.65,6.03,0,6.96,2.79,11.68,12.03,11.68h16.51l1.62-7.15h-13.26c-4.88,0-6.44-1.99-6.44-5.28,0-1.18.2-2.55.52-4.04,1.24-5.59,3.45-9.32,10.08-9.32h14.34s-3.4,15.01-3.4,15.01c-.2.92-.33,1.96-.33,2.76,0,5.51,4.75,8.02,10.66,8.02h7.09l1.62-7.04h-1.89c-4.48,0-6.56-1.41-6.56-4.65,0-.74.13-1.65.32-2.57l2.54-11.15Z"/>
      <g>
        <path class="cls-1" d="M569.97,262.73h25.22c2.54,0,3.97-1.37,3.97-3.96,0-1.17-.65-2.15-2.79-2.86l-15.99-5.33c-4.23-1.43-6.05-4.55-6.05-9.1,0-1.37.13-2.79.39-4.29,1.17-6.89,4.81-10.86,13-10.86h28.08l-1.95,9.1h-23.53c-2.54,0-3.9,1.5-3.9,3.83,0,1.3.85,2.28,2.93,2.99l14.37,4.68c5.07,1.62,7.6,4.36,7.6,9.56,0,1.17-.13,2.47-.39,3.9-1.3,7.28-4.49,11.44-12.87,11.44h-30.03l1.95-9.1Z"/>
        <path class="cls-1" d="M627.3,231.14c2.27-3.58,4.49-5.33,10.08-5.33,4.1,0,6.89.91,7.8,5.33l8.39,40.69h-11.64l-1.89-10.4h-19.18l-6.31,10.4h-12.81l25.55-40.69ZM625.61,252.59h13.46l-2.73-14.43c-.13-.71-.13-1.43-.58-1.43s-.91.71-1.3,1.43l-8.84,14.43Z"/>
      </g>
    </g>
    <path class="cls-1" d="M2477.51,142.8H642.86c-2.76,0-5-2.24-5-5h0c0-2.76,2.24-5,5-5h1834.65"/>
    <path class="cls-1" d="M2548.46,264.63H713.81c-2.76,0-5-2.24-5-5h0c0-2.76,2.24-5,5-5h1834.65"/>
    <path class="cls-1" d="M0,142.8h374.24c3.36,0,6.08-2.24,6.08-5h0c0-2.76-2.72-5-6.08-5H0"/>
    <polygon class="cls-1" points="360.28 261.73 0 261.73 0 251.02 360.27 251.73 360.28 261.73"/>
  </g>
</svg>