<?xml version="1.0" encoding="UTF-8"?>
<svg id="Layer_2" data-name="Layer 2" xmlns="http://www.w3.org/2000/svg" viewBox="0 0 476.79 57.66">
  <defs>
    <style>
      .cls-1 {
        fill: #00a1e4;
      }
    </style>
  </defs>
  <g id="Layer_1-2" data-name="Layer 1">
    <path class="cls-1" d="M5.24,57.66c-3.35,0-5.24-1.85-5.24-4.82,0-.56.06-1.17.18-1.79L7.85,14.38h10.96l-6.64,31.71c-.06.43-.12.87-.12,1.17,0,1.3.67,1.73,2.37,1.73h21.92l-1.83,8.65H5.24Z"/>
    <path class="cls-1" d="M47.42,57.66c-7.74,0-11.07-3.21-11.07-10.01,0-2.23.42-5.38,1.09-8.35,2.9-13.04,6.71-14.77,19.18-14.77,9.01,0,14.76,2.16,14.76,9.89,0,1.3-.24,2.84-.6,4.51-.79,3.71-2.48,5.56-6.41,5.56h-18.09c-.18.87-.24,1.67-.24,2.35,0,2.53,1.33,3.89,5.38,3.89h15.61l-1.45,6.92h-18.15ZM59.39,37.81c1.69,0,2-1.17,2.18-1.98.06-.31.12-.62.12-.86,0-2.66-3.21-3.52-5.93-3.52-4.9,0-7.08,1.55-8.11,6.37h11.73Z"/>
    <path class="cls-1" d="M111.52,32h18.46l1.56-7.11h-21.45c-7.09,0-10.08,1.79-11.44,7.85-.2.93-.33,1.98-.33,2.72,0,3.9,2.6,6.06,7.61,7.79l5.92,2.04c2.41.8,5.4,1.79,5.4,3.71,0,1.55-1.43,1.55-2.86,1.55h-24.34c-4.49,0-6.57-1.42-6.57-4.7,0-.74.13-1.67.33-2.6l2.54-11.25h9.75l1.56-7.11h-9.75l2.34-10.51h-10.14l-2.34,10.51h-4.81l-1.56,7.11h4.81l-3.31,14.77c-.2.93-.33,1.98-.33,2.78,0,5.56,4.75,8.1,10.66,8.1h33.5c6.83,0,9.43-2.04,10.66-7.6.19-.93.33-2.04.33-2.78,0-4.88-4.1-6.68-8.84-8.28l-6.89-2.35c-1.88-.62-3.64-1.24-3.64-2.78,0-1.79,1.82-1.85,3.19-1.85Z"/>
    <path class="cls-1" d="M156.89,57.44c-12.09,0-16.84-5.78-16.84-14.89,0-2.4.26-5.04.91-7.87,2.99-13.53,8.39-20.3,24.31-20.3h18.79l-2.12,9.38h-12.7c-10.4,0-13.46,1.04-15.8,11.5-.52,2.4-.76,5.01-.67,6.61.29,4.88,2.56,6.97,10.56,6.97h13.65l-1.95,8.61h-18.14Z"/>
    <path class="cls-1" d="M214.37,36.78c0,1.76-.06,3.16-.49,5.41-2.5,13.19-8.28,15.25-20.76,15.25-10.29,0-15.52-3.1-15.52-12.15,0-1.76.12-3.22.55-5.53,2.43-13.13,8.28-15.25,20.76-15.25,10.35,0,15.46,3.16,15.46,12.28ZM187.34,45.05c0,3.65,1.89,5.41,6.7,5.41,6.39,0,8.7-2.49,10.1-8.87.3-1.52.49-3.52.49-4.68,0-3.65-1.7-5.41-6.57-5.41-6.39,0-8.83,2.49-10.17,8.87-.37,1.58-.55,3.52-.55,4.68Z"/>
    <path class="cls-1" d="M252,30.72c.88-4.35,2.71-6.21,7.12-6.21h12.13c6.36,0,10.71,3.04,10.71,8.95,0,.87-.12,1.99-.29,2.92l-4.24,21.07h-9.18l3.77-18.58c.18-.93.29-2.05.29-2.73,0-3.04-1.59-4.47-5.3-4.47h-3.94c-1.47,0-2.24.62-2.53,2.17l-4.77,23.61h-9.18l5.42-26.72Z"/>
    <path class="cls-1" d="M218.11,30.72c.88-4.35,2.71-6.21,7.12-6.21h12.13c6.36,0,10.71,3.04,10.71,8.95,0,.87-.12,1.99-.29,2.92l-4.24,21.07h-9.18l3.77-18.58c.18-.93.29-2.05.29-2.73,0-3.04-1.59-4.47-5.3-4.47h-3.94c-1.47,0-2.24.62-2.53,2.17l-4.77,23.61h-9.18l5.42-26.72Z"/>
    <path class="cls-1" d="M293.35,57.44c-7.96,0-11.38-3.2-11.38-9.95,0-2.21.44-5.35,1.12-8.3,2.98-12.97,6.9-14.69,19.71-14.69,9.27,0,15.17,2.15,15.17,9.83,0,1.29-.25,2.83-.62,4.49-.81,3.69-2.55,5.53-6.59,5.53h-18.59c-.19.86-.25,1.66-.25,2.34,0,2.52,1.37,3.87,5.53,3.87h16.04l-1.49,6.88h-18.66ZM305.66,37.72c1.74,0,2.05-1.17,2.24-1.97.06-.31.12-.61.12-.86,0-2.64-3.3-3.5-6.09-3.5-5.04,0-7.28,1.54-8.33,6.33h12.06Z"/>
    <path class="cls-1" d="M361.88,32.03h9.75l1.56-7.04h-9.75l2.34-10.41h-10.14l-2.46,9.89-4.59.04h-13.46c-12.35,0-16.06,5.47-18.07,15.23-.39,1.86-.65,4.16-.65,6.03,0,6.96,2.79,11.68,12.03,11.68h16.51l1.62-7.15h-13.26c-4.88,0-6.44-1.99-6.44-5.28,0-1.18.2-2.55.52-4.04,1.24-5.59,3.45-9.32,10.08-9.32h14.34s-3.4,15.01-3.4,15.01c-.2.92-.33,1.96-.33,2.76,0,5.51,4.75,8.02,10.66,8.02h7.09l1.62-7.04h-1.89c-4.48,0-6.56-1.41-6.56-4.65,0-.74.13-1.65.32-2.57l2.54-11.15Z"/>
    <g>
      <path d="M374.7,46.26h32.11c3.23,0,5.05-1.71,5.05-4.97,0-1.47-.83-2.69-3.56-3.58l-20.36-6.68c-5.38-1.79-7.7-5.7-7.7-11.4,0-1.71.17-3.5.5-5.37,1.49-8.63,6.12-13.6,16.55-13.6h35.75l-2.48,11.4h-29.96c-3.23,0-4.97,1.87-4.97,4.81,0,1.63,1.08,2.85,3.72,3.75l18.29,5.86c6.46,2.04,9.68,5.46,9.68,11.97,0,1.47-.17,3.09-.5,4.89-1.66,9.12-5.71,14.33-16.39,14.33h-38.24l2.48-11.4Z"/>
      <path d="M443.35,6.68c2.9-4.48,5.71-6.68,12.83-6.68,5.21,0,8.77,1.14,9.93,6.68l10.68,50.98h-14.81l-2.4-13.03h-24.42l-8.03,13.03h-16.3l32.53-50.98ZM441.2,33.55h17.13l-3.48-18.08c-.17-.9-.17-1.79-.75-1.79s-1.16.9-1.66,1.79l-11.26,18.08Z"/>
    </g>
  </g>
</svg>