<?xml version="1.0" encoding="UTF-8"?>
<svg id="Layer_2" data-name="Layer 2" xmlns="http://www.w3.org/2000/svg" viewBox="0 0 1773.76 2442.59">
  <defs>
    <style>
      .cls-1 {
        fill: #00a1e4;
        stroke: #29abe2;
        stroke-miterlimit: 10;
        stroke-width: 102px;
      }
    </style>
  </defs>
  <g id="Layer_1-2" data-name="Layer 1">
    <path class="cls-1" d="M870.56,2391.59c-9.26,0-19.07-2.6-28.52-7.88-22.85-12.78-33.63-35.42-26.82-56.35l319.2-981.14-947.15.77c-46.81,0-87.85-17.25-112.64-47.32-20.49-24.86-27.85-55.77-21.31-89.38l78.01-400.7c11.4-58.53,62.95-101.02,122.58-101.02h536.38L953,123.26c13.41-46.03,47.1-72.26,92.52-72.26h389.91c31.05,0,59.51,14.26,78.1,39.13,18.59,24.87,24.21,56.21,15.42,85.98l-147.63,500.12c-14.23,48.19-59.25,81.85-109.5,81.85H253.91c-35.99,0-67.1,25.64-73.98,60.97l-78.01,400.7c-3.67,18.88,0,35.18,10.92,48.43,15.12,18.35,42.93,29.3,74.41,29.3l1015.36-.82-339.01,1042.05c1.31,1.12,3.19,2.22,4.83,2.84l798.05-958.64c6.75-7.94,8.65-20.1,4.59-28.5-1.1-2.28-4.45-9.22-18.63-8.75h-.85s-464.93.01-464.93.01l15.95-49.02,448.59-.5c28.97-.81,52.94,12.86,64.45,36.71,12.65,26.2,8.11,59.12-11.29,81.93l-800.91,962.08c-8.29,9.74-20.06,14.72-32.89,14.72ZM841.69,708.57h430.12c28.46,0,53.96-19.06,62.01-46.35l147.63-500.12c4.33-14.65,1.56-30.08-7.59-42.32-9.15-12.24-23.16-19.26-38.44-19.26h-389.91c-23.09,0-37.77,11.88-44.89,36.3l-158.93,571.75Z"/>
  </g>
</svg>