<?xml version="1.0" encoding="UTF-8"?>
<svg id="Layer_2" data-name="Layer 2" xmlns="http://www.w3.org/2000/svg" viewBox="0 0 256 256">
  <defs>
    <style>
      .cls-1 {
        fill: #00a1e4;
      }

      .cls-2 {
        fill: #0c1011;
      }
    </style>
  </defs>
  <g id="Layer_1-2" data-name="Layer 1">
    <rect class="cls-2" width="256" height="256" rx="85.4" ry="85.4"/>
    <g>
      <path class="cls-1" d="M106.29,251.28c-.98,0-2.02-.27-3.01-.83-2.41-1.35-3.55-3.74-2.83-5.95l33.72-103.66-100.07.08c-4.95,0-9.28-1.82-11.9-5-2.16-2.63-2.94-5.89-2.25-9.44l8.24-42.33c1.2-6.18,6.65-10.67,12.95-10.67h56.67l17.19-61.84c1.42-4.86,4.98-7.63,9.77-7.63h41.19c3.28,0,6.29,1.51,8.25,4.13s2.56,5.94,1.63,9.08l-15.6,52.84c-1.5,5.09-6.26,8.65-11.57,8.65H41.14c-3.8,0-7.09,2.71-7.82,6.44l-8.24,42.33c-.39,1.99,0,3.72,1.15,5.12,1.6,1.94,4.54,3.1,7.86,3.1l107.27-.09-35.82,110.09c.14.12.34.23.51.3l84.31-101.28c.71-.84.91-2.12.48-3.01-.12-.24-.47-.97-1.97-.92h-.09s-19.53,0-19.53,0v-5.23h19.49c3.06-.09,5.59,1.36,6.81,3.88,1.34,2.77.86,6.25-1.19,8.66l-84.62,101.65c-.88,1.03-2.12,1.56-3.47,1.56ZM103.24,73.46h45.44c3.01,0,5.7-2.01,6.55-4.9l15.6-52.84c.46-1.55.16-3.18-.8-4.47s-2.45-2.03-4.06-2.03h-41.19c-2.44,0-3.99,1.25-4.74,3.84l-16.79,60.41Z"/>
      <path class="cls-1" d="M43.8,117.94c-1.75,0-2.74-.97-2.74-2.52,0-.29.03-.61.1-.94l4.01-19.18h5.73l-3.47,16.59c-.03.23-.06.45-.06.61,0,.68.35.91,1.24.91h11.47l-.96,4.53h-15.32Z"/>
      <path class="cls-1" d="M65.87,117.94c-4.05,0-5.79-1.68-5.79-5.24,0-1.16.22-2.81.57-4.37,1.52-6.82,3.51-7.73,10.03-7.73,4.71,0,7.72,1.13,7.72,5.17,0,.68-.13,1.49-.32,2.36-.41,1.94-1.3,2.91-3.35,2.91h-9.46c-.09.45-.13.87-.13,1.23,0,1.33.7,2.04,2.82,2.04h8.16l-.76,3.62h-9.49ZM72.13,107.56c.89,0,1.04-.61,1.14-1.03.03-.16.06-.32.06-.45,0-1.39-1.68-1.84-3.1-1.84-2.56,0-3.7.81-4.24,3.33h6.14Z"/>
      <path class="cls-1" d="M93.84,101.55l-2.22-1.75,4.38-5.32,2.43,1.91-4.59,5.15Z"/>
      <path class="cls-1" d="M99.4,104.52h9.66l.82-3.72h-11.22c-3.71,0-5.27.94-5.98,4.11-.1.49-.17,1.03-.17,1.42,0,2.04,1.36,3.17,3.98,4.07l3.09,1.07c1.26.42,2.82.94,2.82,1.94,0,.81-.75.81-1.5.81h-12.73c-2.35,0-3.43-.74-3.43-2.46,0-.39.07-.87.17-1.36l1.33-5.89h5.1l.82-3.72h-5.1l1.22-5.5h-5.3l-1.22,5.5h-2.52l-.82,3.72h2.52l-1.73,7.73c-.1.48-.17,1.03-.17,1.46,0,2.91,2.48,4.24,5.58,4.24h17.53c3.57,0,4.93-1.07,5.58-3.98.1-.49.17-1.07.17-1.46,0-2.56-2.14-3.49-4.62-4.33l-3.6-1.23c-.99-.32-1.9-.65-1.9-1.46,0-.94.95-.97,1.67-.97Z"/>
      <path class="cls-1" d="M123.14,117.83c-6.32,0-8.81-3.02-8.81-7.79,0-1.26.14-2.64.48-4.12,1.56-7.08,4.39-10.62,12.72-10.62h9.83l-1.11,4.9h-6.64c-5.44,0-7.04.54-8.26,6.01-.27,1.26-.4,2.62-.35,3.46.15,2.55,1.34,3.65,5.52,3.65h7.14l-1.02,4.51h-9.49Z"/>
      <path class="cls-1" d="M153.21,107.02c0,.92-.03,1.65-.25,2.83-1.31,6.9-4.33,7.98-10.86,7.98-5.38,0-8.12-1.62-8.12-6.36,0-.92.06-1.68.29-2.89,1.27-6.87,4.33-7.98,10.86-7.98,5.41,0,8.09,1.65,8.09,6.42ZM139.07,111.34c0,1.91.99,2.83,3.5,2.83,3.34,0,4.55-1.3,5.29-4.64.16-.8.25-1.84.25-2.45,0-1.91-.89-2.83-3.44-2.83-3.34,0-4.62,1.3-5.32,4.64-.19.83-.29,1.84-.29,2.45Z"/>
      <path class="cls-1" d="M172.89,103.85c.46-2.28,1.42-3.25,3.73-3.25h6.34c3.33,0,5.61,1.59,5.61,4.68,0,.46-.06,1.04-.15,1.53l-2.22,11.02h-4.8l1.97-9.72c.09-.49.15-1.07.15-1.43,0-1.59-.83-2.34-2.77-2.34h-2.06c-.77,0-1.17.32-1.32,1.14l-2.49,12.35h-4.8l2.83-13.98Z"/>
      <path class="cls-1" d="M155.16,103.85c.46-2.28,1.42-3.25,3.73-3.25h6.34c3.33,0,5.61,1.59,5.61,4.68,0,.46-.06,1.04-.15,1.53l-2.22,11.02h-4.8l1.97-9.72c.09-.49.15-1.07.15-1.43,0-1.59-.83-2.34-2.77-2.34h-2.06c-.77,0-1.17.32-1.32,1.14l-2.49,12.35h-4.8l2.83-13.98Z"/>
      <path class="cls-1" d="M194.52,117.83c-4.16,0-5.95-1.67-5.95-5.21,0-1.16.23-2.8.59-4.34,1.56-6.78,3.61-7.68,10.31-7.68,4.85,0,7.94,1.13,7.94,5.14,0,.68-.13,1.48-.33,2.35-.42,1.93-1.33,2.89-3.45,2.89h-9.73c-.1.45-.13.87-.13,1.22,0,1.32.72,2.02,2.9,2.02h8.39l-.78,3.6h-9.76ZM200.97,107.51c.91,0,1.07-.61,1.17-1.03.03-.16.07-.32.07-.45,0-1.38-1.72-1.83-3.19-1.83-2.64,0-3.81.8-4.36,3.31h6.31Z"/>
      <path class="cls-1" d="M230.38,104.53h5.1l.82-3.68h-5.1l1.22-5.45h-5.3l-1.29,5.17-2.4.02h-7.04c-6.46,0-8.4,2.86-9.45,7.97-.2.98-.34,2.18-.34,3.15,0,3.64,1.46,6.11,6.29,6.11h8.64l.85-3.74h-6.94c-2.55,0-3.37-1.04-3.37-2.76,0-.62.1-1.33.27-2.11.65-2.93,1.8-4.88,5.27-4.88h7.5s-1.78,7.85-1.78,7.85c-.1.48-.17,1.03-.17,1.44,0,2.88,2.48,4.2,5.58,4.2h3.71l.85-3.68h-.99c-2.35,0-3.43-.74-3.43-2.43,0-.38.07-.87.17-1.35l1.33-5.83Z"/>
      <g>
        <path class="cls-1" d="M143.8,141.44h13.19c1.33,0,2.07-.71,2.07-2.07,0-.61-.34-1.12-1.46-1.5l-8.37-2.79c-2.21-.75-3.16-2.38-3.16-4.76,0-.71.07-1.46.2-2.24.61-3.6,2.52-5.68,6.8-5.68h14.69l-1.02,4.76h-12.31c-1.33,0-2.04.78-2.04,2.01,0,.68.44,1.19,1.53,1.56l7.52,2.45c2.65.85,3.98,2.28,3.98,5,0,.61-.07,1.29-.2,2.04-.68,3.81-2.35,5.98-6.73,5.98h-15.71l1.02-4.76Z"/>
        <path class="cls-1" d="M173.79,124.91c1.19-1.87,2.35-2.79,5.27-2.79,2.14,0,3.6.48,4.08,2.79l4.39,21.29h-6.09l-.99-5.44h-10.03l-3.3,5.44h-6.7l13.36-21.29ZM172.91,136.13h7.04l-1.43-7.55c-.07-.37-.07-.75-.31-.75s-.48.37-.68.75l-4.62,7.55Z"/>
      </g>
    </g>
  </g>
</svg>