<?xml version="1.0" encoding="UTF-8"?>
<svg id="Layer_2" data-name="Layer 2" xmlns="http://www.w3.org/2000/svg" viewBox="0 0 256 256">
  <defs>
    <style>
      .cls-1 {
        fill: #009fe1;
      }

      .cls-2 {
        fill: #070707;
      }
    </style>
  </defs>
  <g id="Layer_1-2" data-name="Layer 1">
    <rect class="cls-2" width="256" height="256"/>
    <path class="cls-1" d="M50.59,144.4c-7.69-.91-14.38-6.72-14.75-14.72,3.55-14.44,4.4-32.2,8.76-46.17,1.85-5.93,6.98-8.75,12.96-8.99l50.62-.03,15.13-54.48c1.78-4.58,5.61-7.92,10.6-8.37,13.65-1.23,29.36.77,43.21.24,6.27,2.22,10.38,8.28,9.46,15-5.98,16.78-9.1,36.49-15.45,52.91-1.33,3.44-4.04,6.24-7.6,7.37l-106.68.37-7.98,41.22c-.47,1.21,1.93,2.67,2.72,2.67h104.55l-27.95,85.83,60.88-72.85h-13.22c-4.68,0-5.87-12.28-.02-13,3.8-.47,17.29-.52,20.95.05,2.67.42,6.4,3.62,7.38,6.1,2.51,6.38-.5,9.88-4.11,14.57-23.51,30.51-50.87,59.12-74.58,89.6-6.06,6.8-17.51,1.33-16.11-7.63l28.82-89.69H50.59ZM121.7,74.53h37.18l14.63-48.29c.35-.58-.11-2.12-.65-2.12h-36.93l-14.22,50.4Z"/>
  </g>
</svg>